<?xml version="1.0" encoding="utf-8"?>
<!-- Generator: Adobe Illustrator 27.3.1, SVG Export Plug-In . SVG Version: 6.00 Build 0)  -->
<svg version="1.1" id="Capa_1" xmlns="http://www.w3.org/2000/svg" xmlns:xlink="http://www.w3.org/1999/xlink" x="0px" y="0px"
	 viewBox="0 0 285.71 194.16" style="enable-background:new 0 0 285.71 194.16;" xml:space="preserve">
<style type="text/css">
	.st0{fill:#035A6F;}
	.st1{font-family:'CocogooseClassicTrial-ExtraBold';}
	.st2{font-size:31.5957px;}
</style>
<g>
	<g>
		<path class="st0" d="M139.68,108.44c0.92-8.61,4.08-16.25,9.47-22.91c5.4-6.66,12.12-11.31,20.15-13.95
			c-1.72-6.2-5.17-11.37-10.34-15.5c-5.17-4.13-11.14-6.2-17.92-6.2c-8.15,0-15.07,2.87-20.76,8.61s-8.53,12.63-8.53,20.67
			c0,7.92,2.7,14.7,8.1,20.33C125.26,105.11,131.87,108.09,139.68,108.44z M82.48,123.25V34.88v37.38v-3.1V123.25z M82.48,133.59
			c-2.76,0-5.17-1.03-7.24-3.1c-2.07-2.07-3.1-4.48-3.1-7.24V34.88c0-2.76,1.03-5.17,3.1-7.24c2.07-2.07,4.48-3.1,7.24-3.1h25.32
			l12.58-14.99h41.34l12.58,14.99h25.32c2.76,0,5.17,1.03,7.24,3.1c2.07,2.07,3.1,4.48,3.1,7.24v43.07
			c-1.61-1.26-3.24-2.35-4.91-3.27s-3.47-1.72-5.43-2.41V34.88H82.48v88.37h57.88c0.46,1.84,0.98,3.62,1.55,5.34
			c0.57,1.72,1.32,3.39,2.24,5H82.48z M178.26,147.37l-0.86-8.27c-2.3-0.69-4.65-1.69-7.06-3.01c-2.41-1.32-4.36-2.78-5.86-4.39
			l-7.24,3.45l-6.03-9.3l6.55-5.17c-0.57-2.64-0.86-5.02-0.86-7.15c0-2.12,0.29-4.51,0.86-7.15l-6.55-5.17l6.03-9.47l7.24,3.45
			c1.49-1.38,3.45-2.76,5.86-4.13c2.41-1.38,4.77-2.41,7.06-3.1l0.86-8.44h10.34l1.03,8.44c2.3,0.69,4.65,1.72,7.06,3.1
			c2.41,1.38,4.36,2.76,5.86,4.13l7.24-3.45l6.03,9.47l-6.55,5.17c0.57,2.64,0.86,5.02,0.86,7.15c0,2.12-0.29,4.51-0.86,7.15
			l6.55,5.17l-6.03,9.3l-7.24-3.45c-1.49,1.61-3.45,3.07-5.86,4.39c-2.41,1.32-4.77,2.33-7.06,3.01l-1.03,8.27H178.26z M183.43,131
			c5.05,0,9.24-1.67,12.58-5c3.33-3.33,5-7.52,5-12.58s-1.67-9.24-5-12.58c-3.33-3.33-7.52-5-12.58-5s-9.24,1.67-12.58,5
			c-3.33,3.33-5,7.52-5,12.58s1.67,9.24,5,12.58C174.19,129.34,178.38,131,183.43,131z"/>
	</g>
	<text transform="matrix(1 5.090000e-03 -5.090000e-03 1 2.6268 183.3514)" class="st0 st1 st2">HAZLO DE NUEVO</text>
</g>
</svg>
