<?xml version="1.0" encoding="utf-8"?>
<!-- Generator: Adobe Illustrator 27.3.1, SVG Export Plug-In . SVG Version: 6.00 Build 0)  -->
<svg version="1.1" id="Capa_1" xmlns="http://www.w3.org/2000/svg" xmlns:xlink="http://www.w3.org/1999/xlink" x="0px" y="0px"
	 viewBox="0 0 130 99" style="enable-background:new 0 0 130 99;" xml:space="preserve">
<style type="text/css">
	.st0{fill:#FFFFFF;}
</style>
<g>
	<path d="M100,55.2c0,11.3-9.1,20.4-20.4,20.4s-20.4-9.1-20.4-20.4s9.1-20.4,20.4-20.4S100,44,100,55.2z M127.6,19.9v69.7
		c0,3.4-2.8,6.2-6.2,6.2H10.6c-3.4,0-6.2-2.8-6.2-6.2V19.9c0-3.4,2.8-6.2,6.2-6.2h9.8l0.4-1.7c0.1-0.5,0.6-0.9,1.2-0.9H34
		c0.6,0,1.1,0.4,1.2,1l0.3,1.7h18l5-8.1c0.4-0.7,1.2-1.1,1.9-1.1h38.3c0.8,0,1.5,0.4,1.9,1.1l5,8.1h15.7
		C124.8,13.7,127.6,16.5,127.6,19.9z M39.9,33.5c0-2.8-2.3-5.1-5.1-5.1H21.6c-2.8,0-5.1,2.3-5.1,5.1l0,0c0,2.8,2.3,5.1,5.1,5.1h13.2
		C37.6,38.6,39.9,36.3,39.9,33.5L39.9,33.5z M106.3,55.2c0-14.8-12-26.8-26.8-26.8s-26.8,12-26.8,26.8S64.8,82,79.6,82
		S106.3,70,106.3,55.2z"/>
	<path class="st0" d="M98,52.6C98,63.9,88.9,73,77.6,73s-20.4-9.1-20.4-20.4s9.1-20.4,20.4-20.4S98,41.3,98,52.6z M125.7,17.3V87
		c0,3.4-2.8,6.2-6.2,6.2H8.6c-3.4,0-6.2-2.8-6.2-6.2V17.3c0-3.4,2.8-6.2,6.2-6.2h9.8l0.4-1.7c0.1-0.5,0.6-0.9,1.2-0.9h12.1
		c0.6,0,1.1,0.4,1.2,1l0.3,1.7h18l5-8.1c0.4-0.7,1.2-1.1,1.9-1.1h38.3c0.8,0,1.5,0.4,1.9,1.1l5,8.1h15.7
		C122.9,11.1,125.7,13.9,125.7,17.3z M37.9,30.9c0-2.8-2.3-5.1-5.1-5.1H19.7c-2.8,0-5.1,2.3-5.1,5.1l0,0c0,2.8,2.3,5.1,5.1,5.1h13.2
		C35.6,36,37.9,33.7,37.9,30.9L37.9,30.9z M104.4,52.6c0-14.8-12-26.8-26.8-26.8s-26.8,12-26.8,26.8s12,26.8,26.8,26.8
		C92.4,79.4,104.4,67.4,104.4,52.6z"/>
</g>
</svg>
